<svg xmlns="http://www.w3.org/2000/svg" viewBox="0 0 120 120">
  <defs>
    <linearGradient id="origamiLeft" x1="0%" y1="0%" x2="0%" y2="100%">
      <stop offset="0%" stop-color="#E0E0E0" />
      <stop offset="100%" stop-color="#9E9E9E" />
    </linearGradient>
    <linearGradient id="origamiDiag" x1="0%" y1="0%" x2="100%" y2="100%">
      <stop offset="0%" stop-color="#FFFFFF" />
      <stop offset="100%" stop-color="#BDBDBD" />
    </linearGradient>
    <linearGradient id="origamiRight" x1="0%" y1="0%" x2="0%" y2="100%">
      <stop offset="0%" stop-color="#757575" />
      <stop offset="100%" stop-color="#424242" />
    </linearGradient>
    <filter id="origamiShadow" x="-20%" y="-20%" width="140%" height="140%">
      <feDropShadow dx="4" dy="6" stdDeviation="5" flood-color="#000000" flood-opacity="0.4" />
    </filter>
    <filter id="origamiBaseShadow" x="-20%" y="-20%" width="140%" height="140%">
      <feDropShadow dx="0" dy="4" stdDeviation="6" flood-color="#000000" flood-opacity="0.2" />
    </filter>
  </defs>

  <polygon points="75,20 95,30 95,100 75,90" fill="url(#origamiRight)" filter="url(#origamiBaseShadow)" />
  <polygon points="25,20 45,30 45,100 25,90" fill="url(#origamiLeft)" filter="url(#origamiBaseShadow)" />
  <polygon points="25,20 45,30 95,100 75,90" fill="url(#origamiDiag)" filter="url(#origamiShadow)" />
  <polygon points="25,20 45,30 45,32 25,22" fill="#FFFFFF" opacity="0.6" />
  <polygon points="75,20 95,30 95,32 75,22" fill="#FFFFFF" opacity="0.2" />
</svg>
